<?xml version="1.0" encoding="UTF-8"?><svg id="_レイヤー_2" xmlns="http://www.w3.org/2000/svg" viewBox="0 0 518.06 65.38"><defs><style>.cls-1{fill:#80c3c0;}.cls-1,.cls-2,.cls-3,.cls-4{stroke-width:0px;}.cls-2{fill:#5e5298;}.cls-3{fill:#231815;}.cls-4{fill:#f6f7f7;}</style></defs><g id="layout"><path class="cls-1" d="m84.36,9.64C75.2.85,64.04.25,64.04.25c-17.59-1.85-24.54,7.02-24.54,7.02-20.69,2.81-25.35,18.55-25.35,18.55-4.95,12.49,2.44,24.09,2.44,24.09,9.9,16.34,24.98,15.45,24.98,15.45,7.61.07,16.48-3.99,16.48-3.99,12.86-5.62,15.52-23.95,15.52-23.95,1.48,4.44,6.51,3.99,6.51,3.99,9.98-1.4,11.53-13.23,11.53-13.23,1.78-10.34-6.43-17.59-6.43-17.59,4.51-3.03,10.43-1.85,10.43-1.85v-1.04c-7.17-1.4-11.24,1.92-11.24,1.92m-20.4,19.29s-7.02,9.24-20.69,4.87c0,0-9.68-3.25-8.8-16.63,0,0,.45-4.43,4.88-8.94,0,0,24.61-1.55,24.61,20.7m7.25-2.59s-4.14,10.2-4.81,12.57c0,0-3.4,10.12-8.72,16.33,0,0-6.5,8.72-16.41,8.35,0,0-14.78,1.18-23.35-13.97,0,0-8.06-14.34-.15-26.98,0,0,6.36-10.79,19.59-13.75,0,0-6.8,6.06-3.33,15.67,0,0,3.33,11.38,15.15,11.24,0,0,7.1,1.18,14.34-4.81,0,0-1.85,15.52-17.74,17.52,0,0-11.23,1.19-15.37-8.28,0,0-1.99-4.14-.66-9.97l-1.04-.66s-2.81,9.31,3.55,15.52c0,0,9.53,8.72,23.5,1.85,0,0,9.24-4.44,9.68-18.11,0,0,7.25-6.87,3.47-17.81l-.96.59s3.25,9.61-2.51,15.3c0,0,.29-18.63-24.17-19.88,0,0,6.14-6.28,19.59-5.99,0,0,13.3.08,21.88,9.24,0,0-8.72,7.62-11.53,16.04m14.86,4.28s-2.96,8.95-8.57,9.1c0,0-4.29-.23-2.73-7.02,0,0,.73-4.21,6.65-5.99l-.74-1.03s-2.96.89-4.21,1.92c0,0,1.77-11.38,7.39-15.67,0,0,5.62,2.96,2.22,18.7"/><rect class="cls-4" y="50.39" width="106.01" height="12.43"/><path class="cls-2" d="m10.87,54.15l-.33.17c-.23-.93-.69-1.97-1.66-1.97-.73,0-1.48.68-1.71,1.57-.28,1.02.51,1.43,1.12,1.68,1.11.46,2.25.86,1.75,2.73-.4,1.51-1.64,2.51-2.85,2.51-.61,0-1.05-.34-1.44-.34-.21,0-.49.16-.69.34l-.1-2.29.34-.17c.34.95.92,2.07,1.93,2.07.75,0,1.61-.61,1.87-1.59.73-2.73-3.62-1.34-2.78-4.49.4-1.48,1.5-2.4,2.71-2.4.31,0,.47.07.73.2.2.08.27.14.49.14.17,0,.38-.06.54-.23l.09,2.07Z"/><path class="cls-2" d="m16.01,56l.51-1.92c.35-1.29.31-1.61-.46-1.61l.1-.39h2.79l-.1.39c-.8,0-1.01.32-1.36,1.61l-1.23,4.61c-.35,1.31-.31,1.61.49,1.61l-.1.39h-2.79l.1-.39c.77,0,.98-.31,1.33-1.61l.58-2.15h-3.03l-.58,2.15c-.35,1.31-.3,1.61.47,1.61l-.1.39h-2.77l.1-.39c.77,0,.99-.31,1.34-1.61l1.24-4.61c.35-1.29.29-1.61-.47-1.61l.1-.39h2.78l-.1.39c-.77,0-.99.32-1.34,1.61l-.51,1.92h3.03Z"/><path class="cls-2" d="m19.7,58.7c-.35,1.31-.3,1.61.49,1.61l-.1.39h-2.8l.1-.39c.78,0,1-.31,1.35-1.61l1.23-4.61c.35-1.29.3-1.61-.48-1.61l.1-.39h2.81l-.1.39c-.79,0-1.01.32-1.36,1.61l-1.23,4.61Z"/><path class="cls-2" d="m26.66,58.5h.02l1.18-4.41c.35-1.29.31-1.61-.47-1.61l.1-.39h2.26l-.1.39c-.77,0-.99.32-1.34,1.61l-1.77,6.61h-.33l-2.28-7.16h-.02l-1.39,5.16c-.35,1.31-.31,1.61.48,1.61h0l-.1.39h-2.27l.1-.39c.78,0,1-.3,1.35-1.61l1.24-4.61c.34-1.29.29-1.61-.49-1.61l.1-.39h1.7l2.03,6.41Z"/><path class="cls-2" d="m30.73,60.7h-.31l.23-6.59c.04-.94.09-1.71-.91-1.63l.1-.39h2.79l-.11.39c-.28.02-.72-.01-.84.44-.06.22-.06.6-.06.8l-.18,4.79h.02l2.53-4.98c.04-.61-.11-1.11-.7-1.05l.1-.39h2.79l-.1.39c-.32,0-.84-.05-.99.48-.04.17-.05.34-.07.51l-.19,5.03h.02l2.1-4.14c.19-.38.48-.94.58-1.31.17-.62-.41-.54-.68-.58l.1-.39h2.53l-.1.39c-1.07-.06-1.51.99-2.03,1.98l-3.25,6.25h-.31l.2-6.38h-.02l-3.26,6.38Z"/><path class="cls-2" d="m42.37,51.79l.06,6.4c0,.46,0,1.43.17,1.77.11.22.31.31.54.34l-.1.39h-2.87l.1-.39c.34-.04.92.08,1.09-.53.05-.19.04-.58.04-.75v-1.45h-2.5l-.25.45c-.19.34-.73,1.26-.82,1.6-.16.6.33.68.73.68l-.11.39h-2.49l.1-.39c.84-.01,1.36-.99,1.81-1.8l3.49-6.42.99-.29Zm-1,1.29h-.02l-2.15,3.95h2.19l-.02-3.95Z"/><path class="cls-2" d="m48.83,58.7c-.35,1.31-.31,1.61.48,1.61l-.1.39h-2.8l.1-.39c.8,0,1.01-.31,1.36-1.61l1.23-4.61c.35-1.29.31-1.61-.49-1.61l.1-.39h3.38c1.14,0,2,.72,1.59,2.23-.5,1.88-2.04,2.33-3.46,2.33h-.85l-.55,2.05Zm.65-2.44h.37c1.25,0,2.37-.29,2.83-2.01.34-1.27-.23-1.78-1.22-1.78-.93,0-1.09.48-1.35,1.45l-.63,2.34Z"/><path class="cls-2" d="m54.7,58.7c-.35,1.31-.3,1.61.49,1.61l-.1.39h-2.8l.1-.39c.78,0,1-.31,1.35-1.61l1.23-4.61c.35-1.29.3-1.61-.48-1.61l.1-.39h2.81l-.1.39c-.79,0-1.01.32-1.36,1.61l-1.23,4.61Z"/><path class="cls-2" d="m61.42,51.79l.06,6.4c0,.46,0,1.43.17,1.77.11.22.31.31.54.34l-.1.39h-2.86l.1-.39c.34-.04.92.08,1.09-.53.05-.19.04-.58.04-.75v-1.45h-2.5l-.25.45c-.19.34-.73,1.26-.82,1.6-.16.6.33.68.73.68l-.11.39h-2.49l.1-.39c.84-.01,1.36-.99,1.81-1.8l3.49-6.42.99-.29Zm-1,1.29h-.02l-2.15,3.95h2.19l-.02-3.95Z"/><path class="cls-2" d="m68.07,58.5h.02l1.18-4.41c.35-1.29.31-1.61-.47-1.61l.1-.39h2.26l-.1.39c-.77,0-.99.32-1.34,1.61l-1.77,6.61h-.33l-2.28-7.16h-.02l-1.38,5.16c-.35,1.31-.31,1.61.48,1.61h0l-.1.39h-2.27l.1-.39c.78,0,1-.3,1.35-1.61l1.23-4.61c.35-1.29.3-1.61-.48-1.61l.1-.39h1.7l2.03,6.41Z"/><path class="cls-2" d="m72.76,60.82c-2.03,0-2.56-2.19-1.96-4.43.6-2.23,2.36-4.44,4.36-4.44s2.55,2.26,1.95,4.51c-.61,2.28-2.34,4.36-4.36,4.36m-.82-4.48c-.39,1.46-.67,4.09.93,4.09,1.68,0,2.74-2.51,3.16-4.07.41-1.53.66-4.02-.96-4.02s-2.72,2.48-3.13,4"/><path class="cls-2" d="m76.67,62.36c.36-.31.94-.81,1.05-1.22.05-.19-.02-.25-.12-.33-.23-.14-.34-.35-.23-.73.11-.41.47-.73.8-.73.5,0,.57.58.42,1.11-.25.92-1.14,1.66-1.85,2.1l-.06-.2Z"/><path class="cls-2" d="m85.17,58.7c-.35,1.31-.3,1.61.49,1.61l-.1.39h-2.8l.1-.39c.78,0,1-.31,1.35-1.61l1.23-4.61c.35-1.29.3-1.61-.48-1.61l.1-.39h2.81l-.1.39c-.79,0-1.01.32-1.36,1.61l-1.23,4.61Z"/><path class="cls-2" d="m92.13,58.5h.02l1.18-4.41c.35-1.29.31-1.61-.47-1.61l.1-.39h2.26l-.1.39c-.77,0-.99.32-1.34,1.61l-1.77,6.61h-.33l-2.28-7.16h-.02l-1.39,5.16c-.35,1.31-.31,1.61.48,1.61h0l-.1.39h-2.27l.1-.39c.78,0,1-.3,1.35-1.61l1.24-4.61c.34-1.29.29-1.61-.49-1.61l.1-.39h1.7l2.03,6.41Z"/><path class="cls-2" d="m101.23,54.2l-.28.14c-.3-.84-.96-1.91-1.88-1.91-1.62,0-2.64,2.11-3.06,3.68-.45,1.69-.35,3.99,1.32,3.99,1.04,0,1.97-.87,2.74-1.88l.17.14c-.9,1.39-2.16,2.46-3.46,2.46-1.92,0-2.62-1.92-2.04-4.12.29-1.07.87-2.14,1.6-3.03.76-.94,1.77-1.72,2.75-1.72.34,0,.57.09.76.19.2.09.37.18.58.18.25,0,.48-.12.73-.25l.08,2.13Z"/><path class="cls-2" d="m100.66,60.1c-.11.4.09.73.41.73.34,0,.71-.33.82-.72.11-.42-.07-.77-.42-.77s-.7.34-.81.75"/><path class="cls-3" d="m129.56,52.99h-6.27v-19.39c-.8,1.37-1.79,2.89-2.97,4.57l-4.17-3.44c1.49-2.09,3.25-5.35,5.27-9.79s3.54-9.1,4.55-14.01l6.39.83c-.89,4.41-2.24,8.54-4.04,12.38h1.25v28.84Zm19.74-.6h-6.46v-12.22l-4.45-.02v1.84h-6.04V15.31h10.49v-4.33h6.46v4.33h10.54v26.58h-6.29v-1.71l-4.24-.02v12.22Zm-10.77-27.16h4.31v-4.96h-4.31v4.96Zm4.31,4.91h-4.31v4.96h4.31v-4.96Zm6.46-4.91h4.33v-4.96h-4.33v4.96Zm4.33,4.91h-4.33v4.96h4.33v-4.96Z"/><path class="cls-3" d="m173.61,37.77c-2.46,3.44-4.73,6.05-6.8,7.82l-3.78-3.83c1.66-1.48,3.42-3.49,5.29-6.05,1.87-2.56,3.33-5.02,4.39-7.37h-7.84v-5.23h8.74v-4.4c-3.14.52-5.59.85-7.35.99l-1.08-5.05c3.03-.29,6.38-.8,10.06-1.51,3.68-.71,6.54-1.47,8.59-2.27l2.58,4.87c-1.78.61-4,1.21-6.66,1.8v5.58h6.16v5.23h-6.16v.58c1.23,1.45,3.54,3.54,6.94,6.27l-3.07,5.05c-1.2-.95-2.49-2.13-3.87-3.53v16.05h-6.13v-14.99Zm26.68,11.25h-6.76v2.47h-6.41V14.51h19.6v36.98h-6.43v-2.47Zm-6.76-5h6.76v-24.51h-6.76v24.51Z"/><path class="cls-3" d="m249.27,51.49h-23.82c-3.94,0-6.79-.86-8.56-2.59-1.78-1.73-2.66-4.38-2.66-7.94V11.81h7.03v13.47c10.87-1.94,18.95-4.14,24.23-6.62l3.25,5.76c-2.14,1.09-6,2.35-11.59,3.78-5.59,1.43-10.89,2.49-15.9,3.18v9.43c0,1.49.33,2.59.98,3.31s2.04,1.07,4.16,1.07h22.87v6.29Zm3.16-37.61c0,1.43-.49,2.61-1.48,3.54-.98.93-2.22,1.4-3.71,1.4s-2.73-.46-3.71-1.4c-.98-.93-1.48-2.11-1.48-3.54s.49-2.61,1.48-3.54c.98-.93,2.22-1.4,3.71-1.4s2.73.46,3.71,1.4c.98.93,1.48,2.11,1.48,3.54Zm-3.1-2.08c-.56-.57-1.26-.85-2.09-.85s-1.53.28-2.09.85c-.56.57-.84,1.26-.84,2.08s.28,1.51.84,2.08c.56.57,1.26.85,2.09.85s1.53-.28,2.09-.85c.56-.57.84-1.26.84-2.08s-.28-1.51-.84-2.08Z"/><path class="cls-3" d="m298.9,15.5c-.2,1.28-1,3.32-2.41,6.14-1.41,2.82-3.54,5.6-6.39,8.35-2.85,2.74-5.61,4.85-8.27,6.33l-3.57-4.77c2.32-1.32,4.53-3.08,6.62-5.28,2.09-2.2,3.72-4.39,4.89-6.57h-33.29v-5.95h40.33l2.1,1.75Zm-20.5,6.36v1.13c0,3.15-.06,5.77-.17,7.85-.12,2.08-.54,4.3-1.27,6.64-.73,2.34-1.89,4.53-3.48,6.56-1.59,2.03-3.57,3.77-5.94,5.22-2.37,1.45-5.13,2.62-8.28,3.49l-2.49-5.58c5.7-1.77,9.57-4.28,11.6-7.54,2.03-3.26,3.04-7.71,3.04-13.35l-.05-4.43h7.03Z"/><path class="cls-3" d="m326.66,13.61c-1.25,11.96-4.75,21.04-10.53,27.23s-13.48,10.08-23.14,11.64l-2.33-6.2c9.05-1.55,15.89-5.11,20.51-10.69,4.62-5.57,7.34-13.11,8.15-22.61l7.33.62Z"/><path class="cls-3" d="m337.72,37.72c-.97,1.97-2.11,3.88-3.44,5.74l-3.46-3.46c1.44-2.01,2.84-4.57,4.2-7.67,1.35-3.1,2.23-5.77,2.63-8.01h-5.17v-4.68h5.23v-8.72h5.86v8.72h3.23v4.68h-3.23v3.44c.71.91,2.19,2.28,4.45,4.13l-2.12,4.73c-.68-.51-1.45-1.25-2.33-2.21v18.4h-5.86v-15.08Zm20.73,3.27c-3.1,4.01-6.41,7.18-9.91,9.5l-3.44-4.15c2.27-1.78,4.45-3.85,6.52-6.2,2.08-2.35,3.72-4.57,4.93-6.66h-8.35v-5.51h10.15v-5.1h-4.24c-.86,2.04-1.82,3.68-2.88,4.91l-4.73-2.4c1.08-1.72,2.06-3.89,2.96-6.49.9-2.61,1.47-5.02,1.72-7.25l5.9.51c-.26,1.92-.62,3.7-1.06,5.33h2.33v-6.71h6.34v6.71h9.48v5.4h-9.48v5.1h10.68v5.51h-8.92c1.03,1.68,2.29,3.42,3.78,5.22,1.49,1.81,3.87,4.1,7.12,6.88l-4.08,5.05c-3.21-2.8-6.12-6.16-8.71-10.08v11.92h-6.11v-11.48Z"/><path class="cls-3" d="m423.16,24.24h-12.93c.15,3.03.42,5.72.8,8.07.38,2.35.89,4.43,1.54,6.24.65,1.81,1.4,3.33,2.24,4.58s1.38,1.94,1.63,2.07c.25.14.45.21.62.21.46,0,.73-.25.81-.74.08-.49.24-3.08.48-7.77l5.19,1.08c-.17,4.15-.37,7.29-.59,9.43s-.73,3.55-1.53,4.24c-.8.69-1.91,1.04-3.32,1.04s-2.63-.36-3.78-1.07c-1.15-.71-2.56-2.16-4.21-4.35-1.65-2.18-2.98-4.86-3.99-8.05-1.01-3.18-1.76-8.18-2.27-14.99h-23.93v-5.23h23.7c.02-.78.02-1.88.02-3.27l-.02-5.05h6.48v8.32h5.39c-1.05-1.38-2.58-3.29-4.61-5.72l4.73-2.74c2.37,2.44,4.35,4.73,5.95,6.85l-2.49,1.61h4.1v5.23Zm-17.25,18.93l-.05,5.44c-1.06.31-4.81.83-11.25,1.57-6.44.74-10.98,1.21-13.63,1.41l-.99-5.76c1.92-.09,5.13-.34,9.64-.74v-11.92h-7.79v-5.28h21.05v5.28h-6.85v11.3c5.2-.55,8.48-.98,9.87-1.29Z"/><path class="cls-3" d="m461.45,29.91h-25.59v-2.63c-2.84,1.78-5.43,3.13-7.75,4.03l-3.02-4.91c3.3-1.32,7.07-3.55,11.29-6.69,4.22-3.14,7.11-6.03,8.68-8.69h6.25c5,6.29,11.84,11.17,20.54,14.64l-3.37,5.42c-2.18-.86-4.53-2.04-7.03-3.55v2.38Zm-.95,20.38c-7.3.81-17.62,1.56-30.97,2.24l-.99-5.67,6.02-.21c1.63-2.46,3.14-5.02,4.54-7.68h-11.14v-5.53h41v5.53h-9.5c3.92,3.97,7.12,7.76,9.59,11.39l-6.89,2.58c-.35-.69-.91-1.58-1.66-2.65Zm-20.64-25.73h17.11c-3.54-2.58-6.39-5.21-8.55-7.89-2.04,2.57-4.9,5.2-8.55,7.89Zm2.31,21.74c6.07-.32,10.9-.65,14.48-.99-1.51-1.84-2.85-3.4-4.03-4.68l3.07-1.66h-9.13c-1.35,2.51-2.81,4.95-4.38,7.33Z"/><path class="cls-3" d="m485.76,52.76h-5.81v-15.7c-1.61,1.37-3.34,2.62-5.19,3.76l-2.56-4.36c2.8-1.8,5.31-3.97,7.53-6.53,2.22-2.55,3.89-5.16,4.99-7.82h-10.47v-5.1h5.79v-5.86h5.86v5.86h5.44l1.22,1.27c-1.12,3.97-3.18,7.96-6.18,11.97,1.43,1.34,3.88,3.25,7.36,5.74l-2.93,4.96c-1.86-1.44-3.54-2.87-5.05-4.27v16.07Zm32.3-1.36h-28.57v-5.63h11.3v-17.52h-9.04v-5.42h9.04v-11.48h6.59v11.48h9.45v5.42h-9.45v17.52h10.67v5.63Z"/></g></svg>